<svg width="600" height="181" viewBox="0 0 600 181" fill="none" xmlns="http://www.w3.org/2000/svg">
<path d="M164.982 174.906C166.745 174.834 167.73 174.766 169.069 174.41C175.413 172.722 180.064 168.067 180.84 162.359C182.108 153.124 174.005 149.389 168.013 146.641C167.661 146.5 167.237 146.288 166.885 146.077C160.47 143.117 156.242 140.229 156.382 135.574C156.723 124.921 171.157 120.887 175.839 129.553C176.093 130.024 176.661 130.253 177.15 130.038V130.038C177.632 129.825 177.857 129.261 177.599 128.802C175.523 125.114 170.582 122.287 163.573 123.663C157.442 124.862 151.802 129.23 151.662 135.434C151.45 144.173 160.47 148.404 164.841 150.448C165.265 150.588 165.617 150.8 166.041 151.012C172.665 153.972 177.036 159.116 176.12 164.331C174.193 175.127 160.261 176.331 152.775 166.701C152.46 166.295 151.882 166.187 151.458 166.476V166.476C151.027 166.77 150.918 167.363 151.235 167.778C155.256 173.042 160.471 174.906 164.982 174.906Z" fill="#291B25"/>
<path d="M206.567 174.906C208.331 174.834 209.315 174.766 210.655 174.41C216.998 172.722 221.65 168.067 222.426 162.359C223.694 153.124 215.59 149.389 209.599 146.641C209.247 146.5 208.823 146.288 208.471 146.077C202.056 143.117 197.828 140.229 197.968 135.574C198.309 124.921 212.743 120.887 217.425 129.553C217.679 130.024 218.246 130.253 218.736 130.038V130.038C219.218 129.825 219.442 129.261 219.184 128.802C217.109 125.114 212.168 122.287 205.159 123.663C199.027 124.862 193.388 129.23 193.248 135.434C193.036 144.173 202.056 148.404 206.427 150.448C206.851 150.588 207.203 150.8 207.626 151.012C214.25 153.972 218.622 159.116 217.706 164.331C215.779 175.127 201.847 176.331 194.36 166.701C194.045 166.295 193.468 166.187 193.044 166.476V166.476C192.612 166.77 192.504 167.363 192.821 167.778C196.841 173.042 202.056 174.906 206.567 174.906Z" fill="#291B25"/>
<path d="M255.06 174.906C267.115 174.906 276.278 163.347 276.278 149.108C276.278 134.869 267.115 123.31 255.06 123.31C242.937 123.31 233.846 134.869 233.846 149.108C233.846 163.347 242.937 174.906 255.06 174.906ZM255.06 173.002C245.545 173.002 238.569 160.667 238.569 149.108C238.569 137.477 245.545 125.214 255.06 125.214C264.507 125.214 271.483 137.477 271.483 149.108C271.483 160.667 264.507 173.002 255.06 173.002Z" fill="#291B25"/>
<path d="M308.769 174.906C315.684 174.837 322.01 170.533 325.808 163.247C326.059 162.766 325.84 162.178 325.343 161.96V161.96C324.867 161.75 324.312 161.959 324.071 162.421C320.876 168.549 315.176 173.002 308.769 173.002C299.254 173.002 292.278 160.739 292.278 149.108C292.278 137.549 299.254 125.214 308.769 125.214C313.216 125.214 317.475 127.401 320.839 131.125C321.189 131.513 321.783 131.574 322.189 131.245V131.245C322.601 130.912 322.664 130.306 322.312 129.911C318.572 125.724 313.64 123.443 308.769 123.31C296.646 123.31 287.554 134.869 287.554 149.108C287.554 163.347 296.646 174.906 308.769 174.906Z" fill="#291B25"/>
<path d="M338.936 173.13C338.936 173.682 339.383 174.13 339.936 174.13H342.731C343.283 174.13 343.731 173.682 343.731 173.13V124.522C343.731 123.97 343.283 123.522 342.731 123.522H339.936C339.383 123.522 338.936 123.97 338.936 124.522V173.13Z" fill="#291B25"/>
<path d="M358.271 172.908C358.085 173.515 358.539 174.13 359.175 174.13V174.13C359.589 174.13 359.955 173.86 360.078 173.464L363.669 161.864C363.799 161.445 364.186 161.16 364.625 161.16H384.293C384.733 161.16 385.121 161.447 385.249 161.868L388.765 173.421C388.893 173.842 389.282 174.13 389.722 174.13H392.631C393.303 174.13 393.784 173.479 393.586 172.836L378.624 124.228C378.495 123.809 378.107 123.522 377.668 123.522H373.465C373.431 123.522 373.403 123.55 373.403 123.585V123.585C373.403 123.591 373.402 123.597 373.4 123.603L358.271 172.908ZM365.807 159.259C365.134 159.259 364.653 158.607 364.851 157.964L373.503 129.941C373.794 129 375.126 129.001 375.415 129.943L384.002 157.966C384.199 158.609 383.718 159.259 383.046 159.259H365.807Z" fill="#291B25"/>
<path d="M420.981 173.13C420.981 173.682 421.429 174.13 421.981 174.13H424.773C425.326 174.13 425.773 173.682 425.773 173.13V126.426C425.773 125.874 426.221 125.426 426.773 125.426H437.649C438.174 125.426 438.6 125 438.6 124.474V124.474C438.6 123.949 438.174 123.522 437.649 123.522H409.103C408.577 123.522 408.151 123.949 408.151 124.474V124.474C408.151 125 408.577 125.426 409.103 125.426H419.981C420.534 125.426 420.981 125.874 420.981 126.426V173.13Z" fill="#291B25"/>
<path d="M452.697 173.13C452.697 173.682 453.145 174.13 453.697 174.13H456.492C457.044 174.13 457.492 173.682 457.492 173.13V124.522C457.492 123.97 457.044 123.522 456.492 123.522H453.697C453.145 123.522 452.697 123.97 452.697 124.522V173.13Z" fill="#291B25"/>
<path d="M491.463 174.906C503.518 174.906 512.681 163.347 512.681 149.108C512.681 134.869 503.518 123.31 491.463 123.31C479.34 123.31 470.249 134.869 470.249 149.108C470.249 163.347 479.34 174.906 491.463 174.906ZM491.463 173.002C481.948 173.002 474.972 160.667 474.972 149.108C474.972 137.477 481.948 125.214 491.463 125.214C500.91 125.214 507.886 137.477 507.886 149.108C507.886 160.667 500.91 173.002 491.463 173.002Z" fill="#291B25"/>
<path d="M525.366 173.178C525.366 173.704 525.792 174.13 526.318 174.13V174.13C526.843 174.13 527.27 173.704 527.27 173.178V130.436C527.27 129.417 528.615 129.05 529.131 129.928L555.103 174.045C555.108 174.054 555.111 174.064 555.111 174.074V174.074C555.111 174.105 555.136 174.13 555.167 174.13H556.063C556.589 174.13 557.015 173.704 557.015 173.178V124.474C557.015 123.949 556.589 123.522 556.063 123.522V123.522C555.537 123.522 555.111 123.949 555.111 124.474V161.018C555.111 162.037 553.766 162.403 553.249 161.526L531.155 124.015C530.975 123.71 530.648 123.522 530.293 123.522H526.366C525.814 123.522 525.366 123.97 525.366 124.522V173.178Z" fill="#291B25"/>
<path d="M584.009 174.906C585.772 174.834 586.757 174.766 588.097 174.41C594.44 172.722 599.092 168.067 599.868 162.359C601.136 153.124 593.032 149.389 587.04 146.641C586.688 146.5 586.265 146.288 585.912 146.077C579.497 143.117 575.269 140.229 575.41 135.574C575.751 124.921 590.184 120.887 594.866 129.553C595.121 130.024 595.688 130.253 596.177 130.038V130.038C596.659 129.825 596.884 129.261 596.626 128.802C594.551 125.114 589.609 122.287 582.601 123.663C576.469 124.862 570.83 129.23 570.689 135.434C570.478 144.173 579.497 148.404 583.869 150.448C584.292 150.588 584.644 150.8 585.068 151.012C591.692 153.972 596.063 159.116 595.147 164.331C593.22 175.127 579.289 176.331 571.802 166.701C571.487 166.295 570.91 166.187 570.486 166.476V166.476C570.054 166.77 569.945 167.363 570.262 167.778C574.283 173.042 579.498 174.906 584.009 174.906Z" fill="#291B25"/>
<path d="M292.372 116.669C292.372 117.222 292.82 117.669 293.372 117.669H299.669C305.305 117.669 309.854 111.996 309.854 104.911C309.854 97.8288 305.305 92.3671 299.669 92.3671H293.372C292.82 92.3671 292.372 92.8148 292.372 93.3671V116.669ZM295.768 116.753C295.216 116.753 294.768 116.306 294.768 115.753V94.3174C294.768 93.7651 295.216 93.3174 295.768 93.3174H299.669C303.968 93.3174 307.492 99.1686 307.492 104.911C307.492 110.69 303.968 116.753 299.669 116.753H295.768Z" fill="#291B25"/>
<path d="M316.196 116.669C316.196 117.222 316.643 117.669 317.196 117.669H330.769C331.032 117.669 331.244 117.457 331.244 117.194V117.194C331.244 116.932 331.032 116.719 330.769 116.719H319.592C319.039 116.719 318.592 116.271 318.592 115.719V106.334C318.592 105.782 319.039 105.334 319.592 105.334H327.669C327.931 105.334 328.144 105.122 328.144 104.859V104.859C328.144 104.597 327.931 104.384 327.669 104.384H319.592C319.039 104.384 318.592 103.936 318.592 103.384V94.3174C318.592 93.7651 319.039 93.3174 319.592 93.3174H330.028C330.29 93.3174 330.503 93.1046 330.503 92.8422V92.8422C330.503 92.5798 330.29 92.3671 330.028 92.3671H317.196C316.643 92.3671 316.196 92.8148 316.196 93.3671V116.669Z" fill="#291B25"/>
<path d="M344.742 118.056C345.624 118.021 346.116 117.987 346.786 117.81C349.958 116.965 352.285 114.638 352.671 111.784C353.307 107.166 349.254 105.3 346.256 103.926C346.082 103.854 345.87 103.749 345.692 103.643C342.486 102.163 340.371 100.717 340.442 98.3927C340.615 93.0649 347.832 91.0477 350.171 95.3815C350.298 95.6166 350.581 95.7316 350.826 95.6243V95.6243C351.068 95.5184 351.181 95.2358 351.051 95.0058C350.012 93.1621 347.542 91.7493 344.038 92.4356C340.972 93.0338 338.152 95.221 338.081 98.3211C337.975 102.692 342.486 104.805 344.67 105.827C344.882 105.898 345.06 106.004 345.272 106.11C348.584 107.59 350.768 110.164 350.31 112.771C349.349 118.169 342.383 118.77 338.641 113.956C338.483 113.753 338.194 113.698 337.981 113.843V113.843C337.765 113.991 337.711 114.288 337.87 114.496C339.88 117.124 342.487 118.056 344.742 118.056Z" fill="#291B25"/>
<path fill-rule="evenodd" clip-rule="evenodd" d="M75.52 88.8315C75.1351 88.1649 74.1728 88.1649 73.7879 88.8315L21.5848 179.251C21.1999 179.918 21.681 180.751 22.4508 180.751H25.9476C26.3049 180.751 26.635 180.561 26.8136 180.251L73.7877 98.8887C74.1726 98.222 75.1348 98.222 75.5197 98.8887L122.497 180.251C122.675 180.561 123.005 180.751 123.363 180.751H126.86C127.63 180.751 128.111 179.918 127.726 179.251L75.52 88.8315Z" fill="#291B25"/>
<path fill-rule="evenodd" clip-rule="evenodd" d="M19.0959 128.636C31.3934 140.961 47.7786 147.735 65.1827 147.735C82.5867 147.735 98.9751 140.961 111.269 128.636C117.374 122.547 122.117 115.453 125.349 107.73C125.621 107.08 125.138 106.371 124.433 106.371H122.334C121.932 106.371 121.57 106.612 121.41 106.981C118.381 113.945 114.037 120.347 108.509 125.875C96.9406 137.444 81.543 143.825 65.1827 143.825C48.8223 143.825 33.4248 137.444 21.8563 125.875C10.2879 114.307 3.90703 98.9125 3.90703 82.5491C3.90703 66.1887 10.2879 50.7912 21.8563 39.2227C33.4248 27.6574 48.8223 21.2734 65.1827 21.2734C78.0898 21.2734 90.3976 25.2469 100.699 32.6032C100.87 32.7253 101.075 32.7919 101.285 32.7919H104.576C105.507 32.7919 105.921 31.6462 105.188 31.0734C93.8041 22.1799 79.8543 17.3664 65.1827 17.3664C47.7786 17.3664 31.3934 24.1398 19.0959 36.4623C6.77344 48.7598 0 65.145 0 82.5491C0 99.9531 6.77344 116.341 19.0959 128.636Z" fill="#291B25"/>
<path d="M179.356 24.3023C179.356 24.8545 179.803 25.3023 180.356 25.3023H193.895C194.157 25.3023 194.37 25.0895 194.37 24.8271V24.8271C194.37 24.5647 194.157 24.352 193.895 24.352H182.752C182.199 24.352 181.752 23.9043 181.752 23.352V0.999999C181.752 0.447714 181.304 0 180.752 0H180.356C179.803 0 179.356 0.447715 179.356 1V24.3023Z" fill="#291B25"/>
<path d="M201.417 24.3023C201.417 24.8545 201.865 25.3023 202.417 25.3023H215.991C216.253 25.3023 216.466 25.0895 216.466 24.8271V24.8271C216.466 24.5647 216.253 24.352 215.991 24.352H204.813C204.261 24.352 203.813 23.9043 203.813 23.352V13.9674C203.813 13.4151 204.261 12.9674 204.813 12.9674H212.891C213.153 12.9674 213.366 12.7546 213.366 12.4922V12.4922C213.366 12.2298 213.153 12.0171 212.891 12.0171H204.813C204.261 12.0171 203.813 11.5694 203.813 11.0171V1.95028C203.813 1.39799 204.261 0.950275 204.813 0.950275H215.249C215.512 0.950275 215.725 0.737549 215.725 0.475138V0.475138C215.725 0.212726 215.512 0 215.249 0H202.417C201.865 0 201.417 0.447715 201.417 1V24.3023Z" fill="#291B25"/>
<path d="M125.066 80.7628C125.066 81.3151 125.514 81.7628 126.066 81.7628H154.14C154.666 81.7628 155.092 81.3367 155.092 80.811V80.811C155.092 80.2853 154.666 79.8592 154.14 79.8592H130.861C130.309 79.8592 129.861 79.4115 129.861 78.8592V32.1552C129.861 31.6029 129.413 31.1552 128.861 31.1552H126.066C125.514 31.1552 125.066 31.6029 125.066 32.1552V80.7628Z" fill="#291B25"/>
<path d="M169.565 80.5405C169.378 81.1481 169.832 81.7628 170.468 81.7628V81.7628C170.882 81.7628 171.248 81.493 171.371 81.0973L174.963 69.4966C175.092 69.0778 175.48 68.7924 175.918 68.7924H195.586C196.026 68.7924 196.414 69.0801 196.543 69.5012L200.059 81.054C200.187 81.4751 200.575 81.7628 201.015 81.7628H203.924C204.597 81.7628 205.078 81.1117 204.88 80.4686L189.917 31.861C189.788 31.4415 189.4 31.1552 188.961 31.1552H184.758C184.724 31.1552 184.696 31.1831 184.696 31.2175V31.2175C184.696 31.2237 184.695 31.2299 184.693 31.2358L169.565 80.5405ZM177.1 66.8918C176.427 66.8918 175.946 66.2401 176.145 65.5968L184.796 37.5736C185.087 36.6326 186.419 36.634 186.708 37.5757L195.295 65.5988C195.492 66.2416 195.011 66.8918 194.339 66.8918H177.1Z" fill="#291B25"/>
<path d="M232.343 82.5387C234.107 82.467 235.091 82.3985 236.431 82.0433C242.774 80.3546 247.426 75.6998 248.202 69.9919C249.47 60.7571 241.366 57.0214 235.375 54.2734C235.023 54.1332 234.599 53.9214 234.247 53.7095C227.832 50.7496 223.604 47.8614 223.744 43.2066C224.085 32.5544 238.519 28.5199 243.201 37.1861C243.455 37.6567 244.022 37.8862 244.512 37.6705V37.6705C244.994 37.4581 245.218 36.8942 244.96 36.4352C242.885 32.7467 237.944 29.9197 230.935 31.2955C224.803 32.495 219.164 36.8631 219.024 43.0664C218.812 51.8058 227.832 56.0369 232.203 58.0808C232.627 58.221 232.979 58.4328 233.403 58.6447C240.026 61.6046 244.398 66.7485 243.482 71.9641C241.555 82.7598 227.623 83.9642 220.136 74.3335C219.821 73.9284 219.244 73.8197 218.82 74.1088V74.1088C218.389 74.4032 218.28 74.996 218.597 75.4112C222.617 80.6747 227.833 82.5387 232.343 82.5387Z" fill="#291B25"/>
<path d="M273.929 82.5387C275.692 82.467 276.677 82.3985 278.016 82.0433C284.36 80.3546 289.012 75.6998 289.787 69.9919C291.055 60.7571 282.952 57.0214 276.96 54.2734C276.608 54.1332 276.184 53.9214 275.832 53.7095C269.417 50.7496 265.189 47.8614 265.329 43.2066C265.671 32.5544 280.104 28.5199 284.786 37.1861C285.041 37.6567 285.608 37.8862 286.097 37.6705V37.6705C286.579 37.4581 286.804 36.8942 286.546 36.4352C284.471 32.7467 279.529 29.9197 272.52 31.2955C266.389 32.495 260.749 36.8631 260.609 43.0664C260.397 51.8058 269.417 56.0369 273.789 58.0808C274.212 58.221 274.564 58.4328 274.988 58.6447C281.612 61.6046 285.983 66.7485 285.067 71.9641C283.14 82.7598 269.209 83.9642 261.722 74.3335C261.407 73.9284 260.83 73.8197 260.406 74.1088V74.1088C259.974 74.4032 259.865 74.996 260.182 75.4112C264.203 80.6747 269.418 82.5387 273.929 82.5387Z" fill="#291B25"/>
<path d="M302.616 80.7628C302.616 81.3151 303.063 81.7628 303.616 81.7628H331.761C332.287 81.7628 332.713 81.3367 332.713 80.811V80.811C332.713 80.2853 332.287 79.8592 331.761 79.8592H308.411C307.858 79.8592 307.411 79.4115 307.411 78.8592V58.0931C307.411 57.5408 307.858 57.0931 308.411 57.0931H325.558C326.083 57.0931 326.509 56.6669 326.509 56.1412V56.1412C326.509 55.6155 326.083 55.1894 325.558 55.1894H308.411C307.858 55.1894 307.411 54.7417 307.411 54.1894V34.0589C307.411 33.5066 307.858 33.0589 308.411 33.0589H330.281C330.807 33.0589 331.233 32.6327 331.233 32.107V32.107C331.233 31.5814 330.807 31.1552 330.281 31.1552H303.616C303.063 31.1552 302.616 31.6029 302.616 32.1552V80.7628Z" fill="#291B25"/>
<path d="M347.809 31.1552C347.257 31.1552 346.809 31.6029 346.809 32.1552V80.811C346.809 81.3367 347.235 81.7628 347.761 81.7628V81.7628C348.287 81.7628 348.713 81.3367 348.713 80.811V42.6951C348.713 41.5781 350.266 41.3017 350.651 42.3502L364.895 81.1078C365.039 81.5013 365.414 81.7628 365.833 81.7628H369.653C370.072 81.7628 370.447 81.5012 370.592 81.1075L384.975 41.9344C385.36 40.8857 386.914 41.1619 386.914 42.2791V80.8345C386.914 81.3868 387.361 81.8345 387.914 81.8345H390.637C391.189 81.8345 391.637 81.3868 391.637 80.8345V32.1552C391.637 31.6029 391.189 31.1552 390.637 31.1552H387.611C387.192 31.1552 386.818 31.4163 386.673 31.8094L370.163 76.604C369.842 77.4768 368.607 77.476 368.286 76.6028L351.845 31.8106C351.7 31.4169 351.325 31.1552 350.906 31.1552H347.809Z" fill="#291B25"/>
<path d="M405.733 80.7628C405.733 81.3151 406.181 81.7628 406.733 81.7628H434.879C435.405 81.7628 435.831 81.3367 435.831 80.811V80.811C435.831 80.2853 435.405 79.8592 434.879 79.8592H411.528C410.976 79.8592 410.528 79.4115 410.528 78.8592V58.0931C410.528 57.5408 410.976 57.0931 411.528 57.0931H428.676C429.201 57.0931 429.627 56.6669 429.627 56.1412V56.1412C429.627 55.6155 429.201 55.1894 428.676 55.1894H411.528C410.976 55.1894 410.528 54.7417 410.528 54.1894V34.0589C410.528 33.5066 410.976 33.0589 411.528 33.0589H433.399C433.925 33.0589 434.351 32.6327 434.351 32.107V32.107C434.351 31.5814 433.925 31.1552 433.399 31.1552H406.733C406.181 31.1552 405.733 31.6029 405.733 32.1552V80.7628Z" fill="#291B25"/>
<path d="M449.927 80.811C449.927 81.3367 450.353 81.7628 450.879 81.7628V81.7628C451.404 81.7628 451.831 81.3367 451.831 80.811V38.0684C451.831 37.0498 453.176 36.6833 453.692 37.5611L479.664 81.678C479.669 81.6866 479.672 81.6965 479.672 81.7065V81.7065C479.672 81.7376 479.697 81.7628 479.728 81.7628H480.624C481.15 81.7628 481.576 81.3367 481.576 80.811V32.107C481.576 31.5814 481.15 31.1552 480.624 31.1552V31.1552C480.098 31.1552 479.672 31.5814 479.672 32.107V68.6511C479.672 69.6696 478.327 70.0362 477.81 69.1586L455.716 31.6477C455.536 31.3425 455.209 31.1552 454.855 31.1552H450.927C450.375 31.1552 449.927 31.6029 449.927 32.1552V80.811Z" fill="#291B25"/>
<path d="M508.501 80.7628C508.501 81.3151 508.949 81.7628 509.501 81.7628H512.293C512.845 81.7628 513.293 81.3151 513.293 80.7628V34.0589C513.293 33.5066 513.741 33.0589 514.293 33.0589H525.169C525.694 33.0589 526.12 32.6327 526.12 32.107V32.107C526.12 31.5814 525.694 31.1552 525.169 31.1552H496.623C496.097 31.1552 495.671 31.5814 495.671 32.107V32.107C495.671 32.6327 496.097 33.0589 496.623 33.0589H507.501C508.054 33.0589 508.501 33.5066 508.501 34.0589V80.7628Z" fill="#291B25"/>
</svg>
